# xmcd
#
# Track frame offsets:
# 150
# 10970
# 21385
# 31880
# 45285
# 55715
# 68380
# 79712
# 91355
# 102270
#
# Disc length: 1535 seconds
#
#
# Revision: 2
# Processed by: cddbd v1.5.1PL2 Copyright (c) Steve Scherf et al.
# Submitted via: FreeRIP 2.945 
#
DISCID=6a05fd0a
DTITLE=Ferlin Husky - Best Of The Best
DYEAR=1999
DGENRE=Country
TTITLE0=Wings Of A Dove
TTITLE1=Since You've Gone
TTITLE2=A Dear John Letter
TTITLE3=Country Music Is Here To Stay
TTITLE4=Just For You
TTITLE5=Little Tom
TTITLE6=A Fallen Star
TTITLE7=Timber, I'm Falling
TTITLE8=Money Greases The Wheels
TTITLE9=Walkin' And Hummin'
EXTD=Federal-CD-6534
EXTT0=
EXTT1=
EXTT2=
EXTT3=
EXTT4=
EXTT5=
EXTT6=
EXTT7=
EXTT8=
EXTT9=
PLAYORDER=
